<?xml version="1.0" encoding="utf-8"?>
<!-- Generator: Adobe Illustrator 24.3.0, SVG Export Plug-In . SVG Version: 6.00 Build 0)  -->
<svg version="1.1" id="Layer_1" xmlns="http://www.w3.org/2000/svg" xmlns:xlink="http://www.w3.org/1999/xlink" x="0px" y="0px"
	 viewBox="0 0 350 350" style="enable-background:new 0 0 350 350;" xml:space="preserve">
<style type="text/css">
	.st0{opacity:0.3;}
	.st1{fill:#014670;}
	.st2{fill:#00365C;}
	.st3{opacity:0.3;fill:#A9CAFF;}
	.st4{fill:url(#SVGID_1_);}
	.st5{fill:url(#SVGID_2_);}
	.st6{fill:url(#SVGID_3_);}
	.st7{fill:url(#SVGID_4_);}
	.st8{fill:url(#SVGID_5_);}
	.st9{fill:#111023;}
	.st10{fill:url(#SVGID_6_);}
	.st11{fill:url(#SVGID_7_);}
	.st12{fill:url(#SVGID_8_);}
	.st13{fill:url(#SVGID_9_);}
	.st14{fill:url(#SVGID_10_);}
	.st15{fill:url(#SVGID_11_);}
	.st16{fill:url(#SVGID_12_);}
	.st17{fill:#5B2B89;}
	.st18{fill:url(#SVGID_13_);}
	.st19{fill:url(#SVGID_14_);}
	.st20{fill:url(#SVGID_15_);}
	.st21{fill:url(#SVGID_16_);}
	.st22{fill:url(#SVGID_17_);}
	.st23{opacity:0.38;fill:url(#SVGID_18_);}
	.st24{fill:url(#SVGID_19_);}
	.st25{fill:#F79244;}
	.st26{fill:#FFFFFF;}
	.st27{fill:url(#SVGID_20_);}
	.st28{fill:url(#SVGID_21_);}
	.st29{fill:#2A2A2A;}
	.st30{fill:url(#SVGID_22_);}
</style>
<g>
	<g class="st0">
		<path class="st1" d="M44.17,263.72H9.22c-9.35-9.72-11.86-25.2-6.27-37.48c5.33-11.7,16.76-19.43,23.69-30.26
			c14.78-23.11,7.64-57.55,27.73-76.23c10.04-9.34,24.48-12.04,38.16-13.13c13.67-1.09,27.8-1.06,40.44-6.38
			c15.59-6.55,27.34-20.63,43.4-25.93c18.03-5.96,39.6,1.48,50.14,17.27c6.59,9.89,9.08,22.3,16.88,31.27
			c12.61,14.5,34.82,15.62,50.55,26.66c10.79,7.57,18.07,19.94,19.46,33.04c1.68,15.82-4.33,33.8,5.16,46.57
			c4.63,6.23,12.13,9.74,17.11,15.69c4.97,5.93,6.37,11.32,4.8,18.9H44.17z"/>
		<path class="st2" d="M53.1,263.72H18.15c-9.35-9.72-11.86-25.2-6.27-37.48c5.33-11.7,16.76-19.43,23.69-30.26
			c14.78-23.11,7.64-57.55,27.73-76.23c10.04-9.34,24.48-12.04,38.16-13.13c13.67-1.09,27.8-1.06,40.44-6.38
			c15.59-6.55,27.34-20.63,43.4-25.93c18.03-5.96,39.6,1.48,50.14,17.27c6.59,9.89,9.08,22.3,16.88,31.27
			c12.61,14.5,34.82,15.62,50.55,26.66c10.79,7.57,18.07,19.94,19.46,33.04c1.68,15.82-4.33,33.8,5.16,46.57
			c4.63,6.23,12.13,9.74,17.11,15.69c4.97,5.93,6.37,11.32,4.8,18.9H53.1z"/>
	</g>
	<path class="st3" d="M133.55,144.02l-1.44,0.05H2.12l-0.31,0.04c-1.29-8.62,5.46-17.38,13.95-19.7c7.43-2.03,16.12-0.22,22.34-4.77
		c5.57-4.07,6.96-11.67,10.6-17.53c2.27-3.65,5.5-6.69,9.28-8.72c4.74-2.55,10.65-3.44,15.51-1.13
		c8.61,4.09,10.26,15.49,16.02,23.09c1.28,1.7,2.9,3.28,4.96,3.84c1.89,0.52,3.9,0.12,5.85-0.23c6.36-1.12,13.99-1.02,17.95,4.09
		c1.86,2.4,2.53,5.49,3.56,8.34c1.03,2.86,2.72,5.79,5.58,6.82c1.37,0.48,2.93,0.5,4.13,1.3
		C132.99,140.48,133.46,142.21,133.55,144.02z"/>
	<path class="st3" d="M342.64,160.44H191.05c-1.21-1.59-1.36-4.05-0.5-5.93c1.12-2.48,3.46-4.16,5.78-5.56
		c2.33-1.41,4.81-2.7,6.55-4.78c3.35-4,3.15-9.74,3.89-14.9c0.87-6.12,3.44-12.19,8.07-16.29c1.83-1.63,3.96-2.92,6.19-3.95
		c6.35-2.95,14.21-3.69,20.14,0.03c5.68,3.56,8.46,10.33,13.41,14.84c1.17,1.07,2.51,2.03,4.05,2.39c4.43,1.02,8.2-3,11.53-6.1
		c4.73-4.41,11.04-7.7,17.45-6.88c7.54,0.98,13.36,7.44,16.22,14.48c1.19,2.93,2.1,6.18,4.48,8.26c6.1,5.34,16.39-0.65,23.5,3.24
		c2.67,1.46,4.45,4.11,5.88,6.8C340.07,150.57,341.75,155.44,342.64,160.44z"/>
	<g>
		<linearGradient id="SVGID_1_" gradientUnits="userSpaceOnUse" x1="53.7408" y1="214.1975" x2="130.5514" y2="214.1975">
			<stop  offset="0" style="stop-color:#31D1D6"/>
			<stop  offset="0.3733" style="stop-color:#32CED8"/>
			<stop  offset="0.6175" style="stop-color:#36C6DF"/>
			<stop  offset="0.824" style="stop-color:#3CB7EB"/>
			<stop  offset="1" style="stop-color:#45A3FA"/>
		</linearGradient>
		<path class="st4" d="M130.55,244.54h-10.91v19.17H93.23v-19.17H53.74V224.9l41.18-60.22h24.72v59.88h10.91V244.54z M93.23,224.56
			v-11.52c0-2.17,0.08-5.09,0.24-8.77c0.16-3.68,0.28-5.61,0.37-5.79h-0.74c-1.54,3.48-3.27,6.73-5.22,9.75l-10.97,16.32H93.23z"/>
		<linearGradient id="SVGID_2_" gradientUnits="userSpaceOnUse" x1="85.6316" y1="270.2354" x2="84.8992" y2="232.8851">
			<stop  offset="0" style="stop-color:#F9E6D9"/>
			<stop  offset="0.121" style="stop-color:#FCF1EA"/>
			<stop  offset="0.2698" style="stop-color:#FEF9F6"/>
			<stop  offset="0.4751" style="stop-color:#FFFEFD"/>
			<stop  offset="1" style="stop-color:#FFFFFF"/>
		</linearGradient>
		<path class="st5" d="M123.34,244.55h-10.91v19.17H86.02v-19.17H46.53v-19.64l41.18-60.22h24.72v59.88h10.91V244.55z M86.02,224.57
			v-11.52c0-2.17,0.08-5.09,0.24-8.77c0.16-3.68,0.28-5.61,0.37-5.79h-0.74c-1.54,3.48-3.27,6.73-5.22,9.75l-10.97,16.32H86.02z"/>
	</g>
	<g>
		
			<linearGradient id="SVGID_3_" gradientUnits="userSpaceOnUse" x1="222.4339" y1="209.8794" x2="299.2471" y2="209.8794" gradientTransform="matrix(0.9818 -0.1899 0.1899 0.9818 -36.7145 64.981)">
			<stop  offset="0" style="stop-color:#31D1D6"/>
			<stop  offset="0.3733" style="stop-color:#32CED8"/>
			<stop  offset="0.6175" style="stop-color:#36C6DF"/>
			<stop  offset="0.824" style="stop-color:#3CB7EB"/>
			<stop  offset="1" style="stop-color:#45A3FA"/>
		</linearGradient>
		<path class="st6" d="M302.93,245.21l-3.8-19.62l-7.08,1.37l-3.63,0.7l-11.37-58.79l-24.28,4.7l-29,66.94l3.73,19.29l38.77-7.5
			l2.21,11.43h26.91l-3.18-16.44l3.63-0.7L302.93,245.21z M255.42,234.05l-8.94,1.72l6.38-15.06l1.29-3.05
			c1.33-3.34,2.42-6.86,3.27-10.57l0.73-0.14c-0.05,0.19,0.19,2.11,0.73,5.76c0.54,3.64,1.02,6.52,1.43,8.66l2.19,11.3
			L255.42,234.05z"/>
		<linearGradient id="SVGID_4_" gradientUnits="userSpaceOnUse" x1="256.7249" y1="266.8806" x2="255.9925" y2="229.5302">
			<stop  offset="0" style="stop-color:#F9E6D9"/>
			<stop  offset="0.121" style="stop-color:#FCF1EA"/>
			<stop  offset="0.2698" style="stop-color:#FEF9F6"/>
			<stop  offset="0.4751" style="stop-color:#FFFEFD"/>
			<stop  offset="1" style="stop-color:#FFFFFF"/>
		</linearGradient>
		<path class="st7" d="M295.85,246.58l-3.8-19.62l-10.71,2.07l-11.37-58.79l-17.19,3.32l-7.08,1.37l-29,66.95l3.73,19.28l7.08-1.37
			l31.69-6.12l1.94,10.05h26.91l-2.91-15.07l7.08-1.37L295.85,246.58z M252.86,220.71c0.13,0.74,0.26,1.41,0.37,2.03l2.19,11.3
			l-16.03,3.1l7.68-18.11c1.33-3.33,2.42-6.86,3.27-10.56l0.73-0.14c-0.05,0.2,0.19,2.12,0.73,5.76
			C252.18,216.68,252.54,218.89,252.86,220.71z"/>
	</g>
	<g id="XMLID_3_">
		<g>
			<linearGradient id="SVGID_5_" gradientUnits="userSpaceOnUse" x1="102.6227" y1="167.0311" x2="124.3486" y2="161.4165">
				<stop  offset="0" style="stop-color:#31D1D6"/>
				<stop  offset="0.3733" style="stop-color:#32CED8"/>
				<stop  offset="0.6175" style="stop-color:#36C6DF"/>
				<stop  offset="0.824" style="stop-color:#3CB7EB"/>
				<stop  offset="1" style="stop-color:#45A3FA"/>
			</linearGradient>
			<path class="st8" d="M134.24,213.49l-16.13,0l-10.25-75.02c0,0-14.8-16.17-31.8-19.2l16.19-1.74l36.48,0.99L134.24,213.49z"/>
			<path class="st9" d="M70.59,172.25c0,0-9.16,13.41-5.1,24.93l17.05-24.93l-2.21-2.97L70.59,172.25z"/>
			<path class="st9" d="M118.11,213.49l-0.55,3.46c0,0-4.86,0.68-5.13,7.62h12.64l6.87-6.7l0.64-4.38H118.11z"/>
			<linearGradient id="SVGID_6_" gradientUnits="userSpaceOnUse" x1="59.4981" y1="146.3954" x2="107.8648" y2="146.3954">
				<stop  offset="0" style="stop-color:#31D1D6"/>
				<stop  offset="0.3733" style="stop-color:#32CED8"/>
				<stop  offset="0.6175" style="stop-color:#36C6DF"/>
				<stop  offset="0.824" style="stop-color:#3CB7EB"/>
				<stop  offset="1" style="stop-color:#45A3FA"/>
			</linearGradient>
			<path class="st10" d="M98.6,138.41l-20.21-0.75l3.28,30.95l-13.7,4.91l-7.9-38.23c-2.31-7.12,2.52-14.57,9.96-15.38l6.02-0.65
				h0.01c16.99,3.03,31.8,19.2,31.8,19.2L98.6,138.41z"/>
		</g>
		<g>
			<linearGradient id="SVGID_7_" gradientUnits="userSpaceOnUse" x1="25.823" y1="50.2012" x2="61.3825" y2="50.2012">
				<stop  offset="0" style="stop-color:#51ADC6"/>
				<stop  offset="6.081700e-03" style="stop-color:#55AFC4"/>
				<stop  offset="0.0663" style="stop-color:#74BFB5"/>
				<stop  offset="0.1333" style="stop-color:#8FCDA7"/>
				<stop  offset="0.2102" style="stop-color:#A5D89D"/>
				<stop  offset="0.3001" style="stop-color:#B6E094"/>
				<stop  offset="0.4112" style="stop-color:#C1E78E"/>
				<stop  offset="0.5672" style="stop-color:#C8EA8B"/>
				<stop  offset="1" style="stop-color:#CAEB8A"/>
			</linearGradient>
			<path class="st11" d="M61.38,52.02v0.9l-1.1,0.14c-0.28-0.61-0.58-1.09-0.88-1.35c-1.46-1.26-2.48-2.25-3.53-1.65
				c-0.79,0.46-0.73,2.62-0.65,3.64l-2.98,0.38l-26.41,3.35l-0.01-0.05c1.71-0.4,3.04-3.48,3.04-7.21c0-3.69-1.29-6.72-2.97-7.2
				l35.49,4v0.72V52.02z"/>
			<linearGradient id="SVGID_8_" gradientUnits="userSpaceOnUse" x1="27.8003" y1="46.0905" x2="22.0461" y2="46.0905">
				<stop  offset="0" style="stop-color:#8AEBD6"/>
				<stop  offset="0.4615" style="stop-color:#89E9D7"/>
				<stop  offset="0.6276" style="stop-color:#84E2DA"/>
				<stop  offset="0.7461" style="stop-color:#7DD7DE"/>
				<stop  offset="0.8419" style="stop-color:#72C6E5"/>
				<stop  offset="0.9229" style="stop-color:#64B0EE"/>
				<stop  offset="0.9944" style="stop-color:#5395F9"/>
				<stop  offset="1" style="stop-color:#5193FA"/>
			</linearGradient>
			<path class="st12" d="M27.8,44.91c-0.07,0.11-0.14,0.22-0.2,0.34c-0.38,0.73-0.56,1.57-1.03,2.25c-0.34,0.5-0.84,0.89-1.4,1.11
				c-0.59,0.23-1.24,0.27-1.88,0.36c-0.42,0.06-0.86,0.14-1.24,0.32c0.2-3.53,1.59-6.27,3.3-6.36l0.55,0.06
				C26.63,43.18,27.29,43.88,27.8,44.91z"/>
			<linearGradient id="SVGID_9_" gradientUnits="userSpaceOnUse" x1="28.8531" y1="49.534" x2="22.0155" y2="49.534">
				<stop  offset="0" style="stop-color:#31D1D6"/>
				<stop  offset="0.3733" style="stop-color:#32CED8"/>
				<stop  offset="0.6175" style="stop-color:#36C6DF"/>
				<stop  offset="0.824" style="stop-color:#3CB7EB"/>
				<stop  offset="1" style="stop-color:#45A3FA"/>
			</linearGradient>
			<path class="st13" d="M28.85,49.58c-0.01,0.01-0.02,0.02-0.03,0.04c-0.43,0.58-0.64,1.31-1.05,1.91
				c-0.47,0.7-1.22,1.22-2.05,1.41c-0.77,0.17-1.59,0.08-2.29,0.43c-0.36,0.18-0.64,0.47-0.86,0.8c-0.36-1.14-0.56-2.52-0.56-3.99
				c0-0.31,0.01-0.61,0.03-0.9c0.39-0.18,0.82-0.26,1.24-0.32c0.64-0.09,1.29-0.12,1.88-0.36c0.56-0.22,1.06-0.61,1.4-1.11
				c0.47-0.67,0.65-1.51,1.03-2.25c0.06-0.12,0.13-0.23,0.2-0.34C28.39,46.11,28.79,47.74,28.85,49.58z"/>
			<linearGradient id="SVGID_10_" gradientUnits="userSpaceOnUse" x1="28.8654" y1="53.5039" x2="22.5787" y2="53.5039">
				<stop  offset="0" style="stop-color:#8AEBD6"/>
				<stop  offset="0.4615" style="stop-color:#89E9D7"/>
				<stop  offset="0.6276" style="stop-color:#84E2DA"/>
				<stop  offset="0.7461" style="stop-color:#7DD7DE"/>
				<stop  offset="0.8419" style="stop-color:#72C6E5"/>
				<stop  offset="0.9229" style="stop-color:#64B0EE"/>
				<stop  offset="0.9944" style="stop-color:#5395F9"/>
				<stop  offset="1" style="stop-color:#5193FA"/>
			</linearGradient>
			<path class="st14" d="M28.87,50.17c0,3.73-1.33,6.81-3.04,7.21c-0.12,0.03-0.26,0.05-0.39,0.05c-1.19,0-2.25-1.3-2.86-3.27
				c0.21-0.34,0.5-0.62,0.86-0.8c0.7-0.35,1.52-0.26,2.29-0.43c0.83-0.19,1.58-0.7,2.05-1.41c0.4-0.6,0.61-1.33,1.05-1.91
				c0.01-0.01,0.02-0.02,0.03-0.04C28.86,49.77,28.87,49.97,28.87,50.17z"/>
			<path class="st9" d="M82.29,48.4h10.68c-1.11,0.45-2.06,0.95-2.49,1.36c-0.34,0.31-0.19,0.88,0.23,1.61h-8.41V48.4z"/>
			<path class="st9" d="M105.95,50.18v1.18h-5.78c-0.56-1.29-0.97-2.37-1.11-2.97h6.9V50.18z"/>
			<linearGradient id="SVGID_11_" gradientUnits="userSpaceOnUse" x1="61.3825" y1="49.8554" x2="82.2933" y2="49.8554">
				<stop  offset="0" style="stop-color:#31D1D6"/>
				<stop  offset="0.3733" style="stop-color:#32CED8"/>
				<stop  offset="0.6175" style="stop-color:#36C6DF"/>
				<stop  offset="0.824" style="stop-color:#3CB7EB"/>
				<stop  offset="1" style="stop-color:#45A3FA"/>
			</linearGradient>
			<polygon class="st15" points="82.29,51.36 82.29,52.02 61.38,52.02 61.38,47.69 82.29,47.69 82.29,48.4 			"/>
			<linearGradient id="SVGID_12_" gradientUnits="userSpaceOnUse" x1="52.2365" y1="56.3968" x2="62.2089" y2="56.3968">
				<stop  offset="0" style="stop-color:#F7BE86"/>
				<stop  offset="0.3293" style="stop-color:#F7BC83"/>
				<stop  offset="0.5448" style="stop-color:#F7B67B"/>
				<stop  offset="0.7276" style="stop-color:#F7AC6C"/>
				<stop  offset="0.8912" style="stop-color:#F79E57"/>
				<stop  offset="1" style="stop-color:#F79244"/>
			</linearGradient>
			<path class="st16" d="M62.21,59.41l-4.6,3.5c0,0-5.59-5.86-5.36-8.83l2.98-0.38c-0.07-1.02-0.13-3.18,0.65-3.64
				c1.05-0.61,2.06,0.39,3.53,1.65c0.3,0.26,0.6,0.75,0.88,1.35C61.36,55.37,62.21,59.41,62.21,59.41z"/>
			<path class="st17" d="M31.23,43c-0.31-0.67-1.3-0.1-1,0.57c1.89,4.14,1.65,8.7-0.62,12.64c-0.37,0.64,0.63,1.22,0.99,0.57
				C33.09,52.48,33.3,47.51,31.23,43z"/>
		</g>
		<g>
			<linearGradient id="SVGID_13_" gradientUnits="userSpaceOnUse" x1="111.1376" y1="64.0195" x2="110.8074" y2="76.0152">
				<stop  offset="0" style="stop-color:#7B6ED6"/>
				<stop  offset="0.4804" style="stop-color:#796DD5"/>
				<stop  offset="0.6535" style="stop-color:#7268D0"/>
				<stop  offset="0.7768" style="stop-color:#6760C9"/>
				<stop  offset="0.8765" style="stop-color:#5655BE"/>
				<stop  offset="0.961" style="stop-color:#4047B0"/>
				<stop  offset="1" style="stop-color:#333EA8"/>
			</linearGradient>
			<polygon class="st18" points="113.22,64.04 113.22,67.59 108.97,63.57 			"/>
			<linearGradient id="SVGID_14_" gradientUnits="userSpaceOnUse" x1="119.2218" y1="64.1773" x2="118.3414" y2="92.0205">
				<stop  offset="0" style="stop-color:#7B6ED6"/>
				<stop  offset="0.4804" style="stop-color:#796DD5"/>
				<stop  offset="0.6535" style="stop-color:#7268D0"/>
				<stop  offset="0.7768" style="stop-color:#6760C9"/>
				<stop  offset="0.8765" style="stop-color:#5655BE"/>
				<stop  offset="0.961" style="stop-color:#4047B0"/>
				<stop  offset="1" style="stop-color:#333EA8"/>
			</linearGradient>
			<path class="st19" d="M113.22,67.59l4.28,4.04l4.08,3.86c0,0,9.35-6.55,12.98-6.61c0.26-0.01,0.5,0.01,0.74,0.05
				c3.2,0.45,5.16,4.16,4.6,7.71c-0.61,3.83-0.5,8.06-4.18,8.75c-3.69,0.69-19.92,4.63-19.92,4.63L98.03,65.9l2.09-1.46l4.66-3.26
				l0.94-0.66l2.05,1.93l1.19,1.12L113.22,67.59z"/>
			<linearGradient id="SVGID_15_" gradientUnits="userSpaceOnUse" x1="126.5619" y1="64.444" x2="126.2317" y2="76.4397">
				<stop  offset="0" style="stop-color:#7B6ED6"/>
				<stop  offset="0.4804" style="stop-color:#796DD5"/>
				<stop  offset="0.6535" style="stop-color:#7268D0"/>
				<stop  offset="0.7768" style="stop-color:#6760C9"/>
				<stop  offset="0.8765" style="stop-color:#5655BE"/>
				<stop  offset="0.961" style="stop-color:#4047B0"/>
				<stop  offset="1" style="stop-color:#333EA8"/>
			</linearGradient>
			<path class="st20" d="M124.69,64.78l10.61,4.15c-0.24-0.04-0.48-0.06-0.74-0.05c-3.63,0.06-12.98,6.61-12.98,6.61l-4.08-3.86
				L124.69,64.78z"/>
			<linearGradient id="SVGID_16_" gradientUnits="userSpaceOnUse" x1="55.6038" y1="89.7311" x2="135.7212" y2="89.7311">
				<stop  offset="0" style="stop-color:#7B6ED6"/>
				<stop  offset="0.4804" style="stop-color:#796DD5"/>
				<stop  offset="0.6535" style="stop-color:#7268D0"/>
				<stop  offset="0.7768" style="stop-color:#6760C9"/>
				<stop  offset="0.8765" style="stop-color:#5655BE"/>
				<stop  offset="0.961" style="stop-color:#4047B0"/>
				<stop  offset="1" style="stop-color:#333EA8"/>
			</linearGradient>
			<path class="st21" d="M135.72,85.38l-6.16,16.79l-0.83,16.34c0,0-0.72,0.13-1.98,0.31c-5.88,0.84-23.49,2.85-34.5-1.3l4.29-20.31
				L94.56,81.2l-23.93,2.64L55.6,64.44l2-1.52l4.6-3.5l14.2,13.87l22.21-9.71c0.81,0.58,1.51,0.87,1.51,0.87l-2.09,1.46l17.77,24.11
				C115.8,90.01,132.04,86.07,135.72,85.38z"/>
			<linearGradient id="SVGID_17_" gradientUnits="userSpaceOnUse" x1="90.2916" y1="55.9064" x2="104.7896" y2="55.9064">
				<stop  offset="0" style="stop-color:#F7BE86"/>
				<stop  offset="0.3293" style="stop-color:#F7BC83"/>
				<stop  offset="0.5448" style="stop-color:#F7B67B"/>
				<stop  offset="0.7276" style="stop-color:#F7AC6C"/>
				<stop  offset="0.8912" style="stop-color:#F79E57"/>
				<stop  offset="1" style="stop-color:#F79244"/>
			</linearGradient>
			<path class="st22" d="M104.79,61.18l-4.66,3.26c0,0-0.7-0.29-1.51-0.87c-1.05-0.75-2.3-2-2.45-3.75
				c-0.2-2.35-4.17-6.18-5.47-8.46c-0.42-0.73-0.56-1.3-0.23-1.61c0.43-0.4,1.38-0.91,2.49-1.36c2.47-0.98,5.75-1.65,6.05-0.12
				c0.01,0.04,0.02,0.08,0.03,0.12c0.14,0.6,0.56,1.68,1.11,2.97C101.86,55.31,104.79,61.18,104.79,61.18z"/>
			<linearGradient id="SVGID_18_" gradientUnits="userSpaceOnUse" x1="98.0315" y1="84.0356" x2="135.7212" y2="84.0356">
				<stop  offset="0" style="stop-color:#3C0887"/>
				<stop  offset="0.3227" style="stop-color:#3F0987"/>
				<stop  offset="0.5338" style="stop-color:#470E87"/>
				<stop  offset="0.7129" style="stop-color:#561588"/>
				<stop  offset="0.8732" style="stop-color:#6B1F89"/>
				<stop  offset="1" style="stop-color:#822A8A"/>
			</linearGradient>
			<path class="st23" d="M129.56,102.17C102.37,96.4,98.03,65.9,98.03,65.9l17.77,24.12l19.92-4.65L129.56,102.17z"/>
		</g>
		<g>
			<linearGradient id="SVGID_19_" gradientUnits="userSpaceOnUse" x1="106.9566" y1="58.9981" x2="126.007" y2="58.9981">
				<stop  offset="0" style="stop-color:#F7BE86"/>
				<stop  offset="0.3293" style="stop-color:#F7BC83"/>
				<stop  offset="0.5448" style="stop-color:#F7B67B"/>
				<stop  offset="0.7276" style="stop-color:#F7AC6C"/>
				<stop  offset="0.8912" style="stop-color:#F79E57"/>
				<stop  offset="1" style="stop-color:#F79244"/>
			</linearGradient>
			<path class="st24" d="M124.54,49.96c0.58-0.16,1.16-0.04,1.39,0.88c0.54,2.1-1.82,4.62-1.82,4.62l0.58,9.32l-7.19,6.85l2.82-8.06
				l-7.09,0.47l-4.25-0.47l-1.19-1.12c0,0-0.83-7.73-0.83-12.27c0-1.05,0.04-1.92,0.15-2.49l0.04-0.22
				c4.97,0.84,11.87-1.1,11.87-1.1s0.97,9.42,2.29,9.58c1.32,0.16,1.73-5.12,1.73-5.12S123.79,50.16,124.54,49.96z"/>
			<path class="st9" d="M124.59,43.11l-0.06,6.84c-0.75,0.2-1.5,0.88-1.5,0.88s-0.41,5.28-1.73,5.12c-1.32-0.17-2.29-9.58-2.29-9.58
				s-6.9,1.94-11.87,1.1v-0.01c-1.56-0.26-2.93-0.8-3.83-1.75c-3.8-4-2.48-6.27,2.97-5.04C111.73,41.91,123.03,35.36,124.59,43.11z"
				/>
			<polygon class="st25" points="120.31,63.57 117.5,71.63 113.22,67.59 113.22,64.04 			"/>
			<path class="st9" d="M106.67,48.71c1.09-0.55,2.23-0.61,3.38-0.2c0.7,0.25,0.17,1.29-0.52,1.04c-0.72-0.26-1.54-0.21-2.23,0.14
				C106.64,50.02,106,49.05,106.67,48.71z"/>
			
				<ellipse transform="matrix(0.9986 -0.0522 0.0522 0.9986 -2.5273 6.1912)" class="st9" cx="117.23" cy="51.47" rx="0.83" ry="1.24"/>
			<path class="st9" d="M118.69,48.44c-1.15-0.43-2.28-0.38-3.38,0.15c-0.67,0.32-0.04,1.3,0.63,0.98c0.69-0.33,1.51-0.37,2.23-0.1
				C118.85,49.73,119.39,48.7,118.69,48.44z"/>
			<path class="st25" d="M110.63,55.3c0.37-1.75,1.28-3.54,1.89-5.23c0.13-0.35,0.64-0.09,0.52,0.26c-0.39,1.06-0.77,2.13-1.16,3.19
				c-0.13,0.37-0.46,0.98-0.5,1.37c-0.13,1.32,0.48,1.22,1.16,1.54c0.34,0.16,0.08,0.68-0.26,0.52
				C111.45,56.55,110.38,56.5,110.63,55.3z"/>
			<path class="st9" d="M109.99,51.61c-0.54-0.44-1.16-0.72-1.85-0.81c-0.43-0.05-0.6,0.6-0.17,0.66c0.35,0.04,0.68,0.15,0.99,0.29
				c-0.36,0.12-0.72,0.24-1.09,0.35c-0.41,0.13-0.24,0.79,0.18,0.66c0.6-0.19,1.19-0.39,1.79-0.58
				C110.06,52.11,110.2,51.78,109.99,51.61z"/>
			<ellipse class="st26" cx="112.8" cy="60.47" rx="1.51" ry="2.18"/>
		</g>
	</g>
	<g class="st0">
		<path class="st1" d="M320.9,263.72H48.47c0,0-14.66,9.73,7.13,11.38c21.79,1.65,55.78,3.2,54.95,10.62
			c-0.84,7.42-20.52,5.95-20.52,19.04c0,13.09,90.77,10.07,90.77,10.07s51.28,0.67,58.58-7.99c7.3-8.67-20.67-16.6-15.6-20.02
			c5.08-3.42,41.94,6.84,47.43-1.46s-1.1-13.55,9.03-14.65S319.19,273.58,320.9,263.72z"/>
		<ellipse class="st1" cx="300.3" cy="280.96" rx="20.6" ry="5.86"/>
		<ellipse class="st1" cx="81" cy="286.02" rx="18" ry="4.46"/>
		<ellipse class="st2" cx="184.19" cy="303.39" rx="20.45" ry="3.94"/>
	</g>
	<g>
		<g>
			
				<linearGradient id="SVGID_20_" gradientUnits="userSpaceOnUse" x1="150.1558" y1="235.9736" x2="221.6834" y2="235.9736" gradientTransform="matrix(0.9797 0.2002 -0.2002 0.9797 44.882 -36.6563)">
				<stop  offset="0" style="stop-color:#31D1D6"/>
				<stop  offset="0.3733" style="stop-color:#32CED8"/>
				<stop  offset="0.6175" style="stop-color:#36C6DF"/>
				<stop  offset="0.824" style="stop-color:#3CB7EB"/>
				<stop  offset="1" style="stop-color:#45A3FA"/>
			</linearGradient>
			<path class="st27" d="M211.24,211.33c-4.2-9.59-12.06-15.57-23.61-17.92c-1.26-0.26-2.48-0.46-3.69-0.61
				c-10.18-1.29-18.58,1.14-25.2,7.29c-7.4,6.87-12.86,18.94-16.39,36.2c-2.16,10.57-2.76,19.72-1.81,27.44h25.23
				c-0.32-4.51,0.57-11.88,2.66-22.11c2.26-11.06,4.5-18.53,6.72-22.41c1.29-2.25,2.75-3.74,4.38-4.46c1.17-0.52,2.44-0.65,3.8-0.37
				c3.23,0.67,5.09,3.29,5.58,7.88c0.49,4.6-0.37,12.27-2.56,23.02c-1.65,8.06-3.31,14.2-4.96,18.45h27.66
				c1.28-3.97,2.41-8.34,3.38-13.12c0.64-3.16,1.15-6.19,1.52-9.08C215.54,229.16,214.63,219.09,211.24,211.33z"/>
			<linearGradient id="SVGID_21_" gradientUnits="userSpaceOnUse" x1="170.8669" y1="268.5641" x2="170.1345" y2="231.2138">
				<stop  offset="0" style="stop-color:#F9E6D9"/>
				<stop  offset="0.121" style="stop-color:#FCF1EA"/>
				<stop  offset="0.2698" style="stop-color:#FEF9F6"/>
				<stop  offset="0.4751" style="stop-color:#FFFEFD"/>
				<stop  offset="1" style="stop-color:#FFFFFF"/>
			</linearGradient>
			<path class="st28" d="M204.17,209.89c-3.77-8.62-10.51-14.32-20.23-17.1c-1.09-0.31-2.22-0.59-3.39-0.83
				c-11.85-2.42-21.48-0.2-28.88,6.68c-7.39,6.88-12.86,18.94-16.38,36.2c-0.72,3.51-1.26,6.87-1.64,10.07
				c-0.82,7.03-0.81,13.3,0.03,18.81h25.2c-0.03-0.16-0.05-0.33-0.07-0.5c-0.53-4.39,0.33-12.08,2.57-23.05
				c2.26-11.06,4.5-18.53,6.73-22.41c2.22-3.88,4.94-5.49,8.17-4.83c1.32,0.27,2.42,0.87,3.27,1.8c1.26,1.34,2.02,3.37,2.31,6.08
				c0.49,4.6-0.37,12.27-2.56,23.02c-1.85,9.02-3.7,15.64-5.56,19.89h27.79c1.47-4.35,2.75-9.19,3.85-14.55
				C208.76,232.57,208.36,219.48,204.17,209.89z"/>
		</g>
		<g>
			<polygon class="st29" points="223.43,145.18 223.26,145.31 205.52,159.12 194.44,167.74 185.22,193.25 182.66,192.33 
				192.16,166.08 221.76,143.04 			"/>
		</g>
		<linearGradient id="SVGID_22_" gradientUnits="userSpaceOnUse" x1="205.5176" y1="176.6982" x2="234.5093" y2="176.6982">
			<stop  offset="0" style="stop-color:#7B6ED6"/>
			<stop  offset="0.4804" style="stop-color:#796DD5"/>
			<stop  offset="0.6535" style="stop-color:#7268D0"/>
			<stop  offset="0.7768" style="stop-color:#6760C9"/>
			<stop  offset="0.8765" style="stop-color:#5655BE"/>
			<stop  offset="0.961" style="stop-color:#4047B0"/>
			<stop  offset="1" style="stop-color:#333EA8"/>
		</linearGradient>
		<path class="st30" d="M231.93,202.45c-2.02,2.4-4.77,4.04-7.46,5.64l-0.18-0.32c1.07-1.36,2.19-2.97,1.87-4.67
			c-0.22-1.16-1.08-2.08-1.96-2.87c-1.49-1.31-3.14-2.42-4.56-3.8c-1.42-1.38-2.62-3.11-2.85-5.07c-0.3-2.58,1.09-5.02,1.64-7.56
			c0.22-1.02,0.29-2.1-0.12-3.06c-0.91-2.16-3.66-2.65-5.84-3.52c-1.95-0.79-3.78-2.25-4.32-4.28c-0.79-2.95,1.31-5.96,1.03-9
			c-0.2-2.12-1.7-4.01-3.65-4.82l17.74-13.81c3.01,2.61,5.6,6.06,5.64,10.01c0.01,2.5-1,4.87-1.72,7.26
			c-0.29,0.96-0.53,1.97-0.35,2.95c0.28,1.51,1.48,2.65,2.59,3.71c2.29,2.19,4.59,4.86,4.55,8.03c-0.04,3.56-3.08,6.73-2.55,10.25
			c0.34,2.25,2.07,4.04,2.76,6.2C235.13,196.72,233.94,200.05,231.93,202.45z"/>
	</g>
</g>
</svg>
