<?xml version="1.0" standalone="no"?>
<!DOCTYPE svg PUBLIC "-//W3C//DTD SVG 20010904//EN"
 "http://www.w3.org/TR/2001/REC-SVG-20010904/DTD/svg10.dtd">
<svg version="1.0" xmlns="http://www.w3.org/2000/svg"
 width="709.000000pt" height="710.000000pt" viewBox="0 0 709.000000 710.000000"
 preserveAspectRatio="xMidYMid meet">
<metadata>
Created by potrace 1.16, written by Peter Selinger 2001-2019
</metadata>
<g transform="translate(0.000000,710.000000) scale(0.100000,-0.100000)"
fill="#000000" stroke="none">
<path d="M1160 4820 l0 -1110 160 0 160 0 0 955 0 955 950 0 950 0 0 155 0
155 -1110 0 -1110 0 0 -1110z" fill="#662e53"/>
<path d="M3710 5775 l0 -155 950 0 950 0 0 -955 0 -955 155 0 155 0 0 1110 0
1110 -1105 0 -1105 0 0 -155z" fill="#662e53"/>
<path d="M3780 4903 c-209 -35 -400 -204 -525 -466 -81 -168 -108 -298 -121
-571 l-7 -145 -51 -15 c-28 -8 -102 -27 -163 -43 l-113 -28 0 -62 0 -62 48 14
c26 7 92 26 147 40 55 15 108 30 118 32 16 5 17 -28 17 -601 0 -659 1 -649
-55 -674 -16 -7 -75 -12 -150 -12 l-125 0 0 -60 0 -60 525 0 526 0 -3 57 -3
58 -136 5 c-154 6 -170 13 -190 79 -6 24 -9 256 -7 675 l3 639 25 8 c14 4 79
21 145 39 174 45 165 40 165 105 0 30 -3 55 -8 55 -4 0 -66 -16 -137 -35 -72
-20 -145 -40 -164 -45 l-34 -9 5 292 c6 320 16 393 68 497 32 63 97 128 161
161 52 26 148 36 204 20 70 -19 72 -25 28 -68 -37 -35 -63 -89 -63 -133 0 -37
24 -94 53 -127 39 -44 82 -63 142 -63 147 0 228 149 158 288 -77 152 -291 247
-483 215z" fill="#000000"/>
<path d="M1166 3381 c-3 -5 -5 -503 -3 -1107 l2 -1099 1108 -3 1107 -2 0 155
0 155 -950 2 -950 3 -3 950 -2 950 -152 3 c-83 1 -154 -2 -157 -7z" fill="#662e53"/>
<path d="M5610 2435 l0 -955 -950 0 -950 0 0 -155 0 -155 1105 0 1105 0 0
1110 0 1110 -155 0 -155 0 0 -955z" fill="#662e53"/>
</g>
</svg>
