<?xml version="1.0" encoding="utf-8"?>
<!-- Generator: Adobe Illustrator 24.3.0, SVG Export Plug-In . SVG Version: 6.00 Build 0)  -->
<svg version="1.1" id="Layer_1" xmlns="http://www.w3.org/2000/svg" xmlns:xlink="http://www.w3.org/1999/xlink" x="0px" y="0px"
	 viewBox="0 0 300 300" style="enable-background:new 0 0 300 300;" xml:space="preserve">
<style type="text/css">
	.st0{opacity:0.34;}
	.st1{fill:#CCDBF7;}
	.st2{fill:#3A608B;}
	.st3{fill:#AAFF00;}
	.st4{opacity:0.5;}
	.st5{fill:#FFFFFF;}
	.st6{fill:#1C3C6D;}
	.st7{fill:none;stroke:#1A2E35;stroke-linecap:round;stroke-linejoin:round;stroke-miterlimit:10;}
	.st8{fill:#C2C2C2;stroke:#ABABAB;stroke-linecap:round;stroke-linejoin:round;stroke-miterlimit:10;}
	.st9{fill:#A6A6A6;stroke:#ABABAB;stroke-linecap:round;stroke-linejoin:round;stroke-miterlimit:10;}
	.st10{clip-path:url(#XMLID_48_);fill:#254D7F;}
	.st11{fill:none;stroke:#696969;stroke-linecap:round;stroke-linejoin:round;stroke-miterlimit:10;}
	.st12{clip-path:url(#XMLID_50_);fill:#254D7F;}
	.st13{fill:none;stroke:#919191;stroke-linecap:round;stroke-linejoin:round;stroke-miterlimit:10;}
	.st14{clip-path:url(#XMLID_56_);fill:#254D7F;}
	.st15{fill:#FFFFFF;stroke:#1A2E35;stroke-linecap:round;stroke-linejoin:round;stroke-miterlimit:10;}
	.st16{fill:#1A2E35;stroke:#1A2E35;stroke-linecap:round;stroke-linejoin:round;stroke-miterlimit:10;}
	.st17{fill:#1A2E35;}
	.st18{opacity:0.28;clip-path:url(#XMLID_57_);stroke:#1A2E35;stroke-linecap:round;stroke-linejoin:round;stroke-miterlimit:10;}
	.st19{fill:none;stroke:#FFFFFF;stroke-linecap:round;stroke-linejoin:round;stroke-miterlimit:10;}
	.st20{clip-path:url(#XMLID_58_);fill:#123E67;}
	.st21{fill:#254D7F;}
	.st22{clip-path:url(#XMLID_59_);fill:#002941;}
	.st23{fill:#002941;}
	.st24{fill:#00365C;}
</style>
<g>
	<g class="st0">
		<g>
			<path class="st1" d="M39.3,220.88c0,0,29.23,37.01,79.17,38.52c49.95,1.51,94.61-29.63,131.46-53.9
				c36.85-24.27,48.94-64.86,30.54-98.34c-18.39-33.48-51.79-22.03-91.89-45.57c-40.1-23.54-47.21-35.9-93.7-33.78
				C48.4,29.92,9.92,79.59,11.62,135.23C13.31,190.88,39.3,220.88,39.3,220.88z"/>
		</g>
		<g>
			<g>
				<g>
					<g>
						<path class="st2" d="M48.39,37.75c-0.04,0,0.5-2.7,0.56-2.86c0.62-1.93,2.96-5.28,5.23-5.28c1.63,0,2.74,1.49,2.58,3.05
							c-0.16,1.59-1.59,2.95-2.89,3.73C52.35,37.31,48.39,37.75,48.39,37.75z"/>
						<path class="st2" d="M44,19.59c2.13,0.77,3.2,4.72,3.13,6.74c-0.01,0.18-0.41,2.9-0.45,2.88c0,0-0.03-0.02-0.04-0.02
							c0.17,0.62,0.35,1.29,0.53,2.03c0.32,1.36,0.67,2.9,0.94,4.6c0.27,1.7,0.52,3.55,0.6,5.53c0.09,1.98,0.08,4.07-0.21,6.22
							c0,0.02-0.01,0.05-0.01,0.07c0.28-0.6,1.12-2.26,1.2-2.38c1.11-1.69,4.25-4.31,6.44-3.71c1.57,0.43,2.25,2.16,1.68,3.62
							c-0.58,1.49-2.32,2.42-3.77,2.84c-1.64,0.47-5.3-0.08-5.59-0.13c-0.29,2.05-0.76,4.12-1.35,6.19
							c-0.33,1.19-0.71,2.37-1.1,3.55c0.26-0.51,0.49-0.97,0.53-1.03c1.11-1.69,4.25-4.31,6.44-3.71c1.58,0.43,2.25,2.16,1.68,3.62
							c-0.58,1.49-2.32,2.42-3.77,2.84c-1.48,0.42-4.6,0.01-5.43-0.11c-0.15,0.45-0.3,0.91-0.46,1.36
							c-0.75,2.17-1.51,4.32-2.18,6.46c-0.24,0.75-0.45,1.51-0.66,2.26c0.23-0.46,0.43-0.84,0.46-0.89
							c1.11-1.69,4.25-4.31,6.44-3.71c1.58,0.43,2.25,2.16,1.68,3.62c-0.58,1.49-2.32,2.42-3.77,2.84c-1.41,0.4-4.3,0.05-5.28-0.09
							c-0.19,0.78-0.39,1.55-0.54,2.31c-0.09,0.52-0.22,1.02-0.28,1.55c-0.07,0.52-0.15,1.04-0.22,1.55
							c-0.1,0.99-0.21,2.01-0.29,2.98c-0.06,0.67-0.1,1.32-0.14,1.96c0.23-0.75,0.71-2.22,0.76-2.34c0.56-1.22,1.94-2.98,3.47-3.95
							c0.08-0.18,0.18-0.35,0.29-0.52c0.9-1.28,2.71-1.68,3.95-0.62c1.72,1.48,1.29,5.55,0.5,7.41c-0.05,0.11-0.69,1.25-1.1,1.96
							c0.31-0.38,0.6-0.75,0.92-1.14c0.63-0.77,1.28-1.52,1.98-2.33c0.35-0.38,0.7-0.76,1.06-1.15c0.35-0.39,0.76-0.76,1.15-1.15
							c0.91-0.88,1.87-1.72,2.86-2.55c-0.67-0.55-3.04-2.55-3.72-3.91c-0.68-1.35-1.16-3.26-0.46-4.7c0.69-1.41,2.42-2.07,3.81-1.21
							c1.92,1.2,2.11,5.29,1.62,7.25c-0.03,0.12-0.55,1.49-0.84,2.24c0.6-0.49,1.19-0.99,1.81-1.47c1.79-1.39,3.65-2.73,5.5-4.08
							c0.57-0.41,1.12-0.83,1.69-1.25c-0.24-0.19-3.11-2.51-3.87-4.03c-0.68-1.35-1.16-3.26-0.46-4.7c0.69-1.41,2.42-2.07,3.81-1.21
							c1.92,1.2,2.11,5.29,1.62,7.25c-0.04,0.15-0.78,2.12-1,2.61c1.24-0.92,2.46-1.85,3.63-2.81c1.61-1.33,3.12-2.72,4.49-4.18
							c-0.11-0.09-3.11-2.49-3.89-4.05c-0.68-1.35-1.16-3.26-0.46-4.7c0.69-1.41,2.42-2.07,3.81-1.21c1.92,1.2,2.11,5.29,1.62,7.25
							c-0.03,0.13-0.6,1.63-0.88,2.34c0.06,0.04,0.05,0.03,0.11,0.07c1.44-1.58,2.64-3.29,3.68-4.95c0.61-0.96,1.13-1.91,1.62-2.84
							c-0.6-0.39-3.35-2.2-4.21-3.53c-0.82-1.27-1.52-3.12-0.97-4.62c0.54-1.47,2.18-2.33,3.65-1.62c2.04,0.99,2.68,5.03,2.4,7.03
							c-0.02,0.11-0.29,1.2-0.51,1.99c0.21-0.43,0.44-0.86,0.64-1.27c0.75-1.54,1.33-3,1.84-4.3c0.28-0.74,0.53-1.41,0.75-2.05
							c-0.39-0.69-1.94-3.5-2.09-5.05c-0.14-1.51,0.09-3.46,1.27-4.55c1.15-1.06,3.01-1.06,3.99,0.25c1.36,1.82,0.06,5.7-1.11,7.35
							c-0.1,0.14-1.94,2.19-1.96,2.16c0,0-0.02-0.03-0.02-0.04c-0.2,0.61-0.42,1.27-0.68,1.98c-0.48,1.31-1.04,2.79-1.76,4.35
							c-0.71,1.57-1.53,3.25-2.55,4.94c-1.02,1.7-2.18,3.44-3.61,5.07c-0.02,0.02-0.04,0.04-0.05,0.05
							c0.57-0.35,2.18-1.27,2.31-1.33c1.86-0.8,5.93-1.25,7.42,0.46c1.07,1.23,0.68,3.04-0.59,3.95c-1.31,0.93-3.27,0.74-4.71,0.29
							c-1.63-0.52-4.37-2.99-4.59-3.19c-1.37,1.54-2.91,3.02-4.54,4.42c-0.93,0.8-1.9,1.59-2.88,2.36c0.5-0.29,0.95-0.54,1.01-0.57
							c1.86-0.8,5.93-1.25,7.42,0.46c1.07,1.23,0.68,3.04-0.59,3.95c-1.31,0.93-3.27,0.74-4.71,0.29c-1.46-0.46-3.85-2.53-4.47-3.08
							c-0.38,0.29-0.75,0.59-1.13,0.88c-1.82,1.39-3.64,2.78-5.39,4.19c-0.62,0.5-1.2,1.01-1.79,1.52c0.44-0.25,0.82-0.46,0.88-0.49
							c1.86-0.8,5.93-1.25,7.42,0.46c1.07,1.23,0.68,3.04-0.59,3.95c-1.31,0.93-3.27,0.74-4.71,0.29c-1.4-0.44-3.61-2.33-4.36-2.99
							c-0.59,0.54-1.18,1.08-1.72,1.63c-0.36,0.38-0.74,0.73-1.09,1.14c-0.35,0.4-0.7,0.79-1.04,1.17
							c-0.63,0.77-1.29,1.56-1.89,2.33c-0.42,0.53-0.81,1.04-1.2,1.56c0.61-0.5,1.82-1.46,1.93-1.53c1.72-1.07,5.67-2.13,7.4-0.67
							c1.25,1.05,1.14,2.9,0.01,3.99c-1.15,1.11-3.12,1.23-4.61,1c-1.65-0.26-4.62-2.2-4.99-2.44c-0.65,0.86-1.27,1.69-1.85,2.49
							c-2,2.77-3.57,5.15-4.64,6.83c-0.04,0.06-0.07,0.11-0.11,0.17l-1.39-0.67c0.07-0.11,0.14-0.21,0.22-0.33
							c1.12-1.68,2.75-4.05,4.84-6.8c0.66-0.87,1.38-1.79,2.12-2.73c-0.19-0.21-1.28-1.41-2.15-2.67c-1.59,0.62-4.91,0.65-5.34,0.65
							c-0.07,1.07-0.13,2.12-0.17,3.1c-0.14,3.42-0.13,6.27-0.1,8.26c0,0.08,0,0.15,0,0.23l-1.53-0.74
							c0.02-1.98,0.08-4.66,0.28-7.82c0.07-1.09,0.16-2.25,0.27-3.44c-0.42-0.11-3.87-0.99-5.18-2.03
							c-1.18-0.94-2.42-2.47-2.38-4.08c0.04-1.57,1.33-2.9,2.95-2.69c2.25,0.29,4.14,3.92,4.51,5.91C38.85,78.7,38.95,80,39,80.82
							c0.05-0.49,0.09-0.96,0.14-1.46c0.1-0.99,0.23-1.98,0.36-3.04c0.08-0.51,0.17-1.03,0.25-1.55c0.07-0.52,0.22-1.06,0.32-1.59
							c0.27-1.23,0.61-2.47,0.98-3.7c-0.87-0.09-3.94-0.45-5.26-1.21c-1.31-0.75-2.77-2.08-2.97-3.67c-0.2-1.56,0.88-3.07,2.51-3.11
							c2.27-0.06,4.68,3.25,5.35,5.16c0.04,0.12,0.37,1.54,0.53,2.33c0.23-0.74,0.45-1.48,0.7-2.23c0.73-2.14,1.54-4.29,2.33-6.44
							c0.24-0.66,0.48-1.32,0.72-1.97c-0.31-0.03-3.98-0.38-5.45-1.23c-1.31-0.75-2.77-2.08-2.97-3.67
							c-0.2-1.56,0.88-3.07,2.51-3.11c2.27-0.06,4.68,3.25,5.35,5.16c0.05,0.14,0.51,2.2,0.61,2.72c0.52-1.45,1.03-2.9,1.47-4.35
							c0.61-2,1.11-3.99,1.44-5.96c-0.14-0.01-3.97-0.36-5.48-1.23c-1.31-0.75-2.77-2.08-2.97-3.67c-0.2-1.56,0.88-3.07,2.51-3.11
							c2.27-0.06,4.68,3.25,5.35,5.16c0.04,0.13,0.4,1.69,0.55,2.44c0.07,0,0.06,0,0.13,0c0.33-2.11,0.39-4.2,0.34-6.15
							c-0.02-1.13-0.11-2.21-0.22-3.27c-0.72,0.01-4.01,0.01-5.46-0.62c-1.39-0.61-2.98-1.76-3.36-3.32
							c-0.37-1.52,0.53-3.14,2.15-3.36c2.25-0.3,5.01,2.71,5.88,4.54c0.05,0.1,0.42,1.16,0.68,1.94c-0.06-0.47-0.1-0.96-0.17-1.42
							c-0.23-1.7-0.54-3.24-0.83-4.61c-0.17-0.77-0.34-1.47-0.51-2.12c-0.71-0.36-3.55-1.85-4.53-3.05
							c-0.95-1.18-1.84-2.94-1.45-4.49C40.91,20.06,42.46,19.03,44,19.59z"/>
						<path class="st3" d="M84.99,54.54c-1.77-0.07-5.32-1.89-5.32-1.89c-0.04-0.02,1.91-1.97,2.04-2.08
							c1.58-1.26,5.39-2.77,7.27-1.52c1.36,0.9,1.46,2.75,0.47,3.97C88.45,54.26,86.5,54.6,84.99,54.54z"/>
					</g>
					<g class="st4">
						<path class="st5" d="M84.99,54.54c-1.77-0.07-5.32-1.89-5.32-1.89c-0.04-0.02,1.91-1.97,2.04-2.08
							c1.58-1.26,5.39-2.77,7.27-1.52c1.36,0.9,1.46,2.75,0.47,3.97C88.45,54.26,86.5,54.6,84.99,54.54z"/>
					</g>
				</g>
				<g>
					<g>
						<path class="st3" d="M64.3,98.92c0,0-10.75-25.92-16.77-24.8s10.32,41.33,10.32,41.33S38.93,79.76,26.03,79.76
							s4.73,39.45,21.07,52.6c0,0-25.8-27.8-40.85-21.79c-15.05,6.01,30.1,34.19,30.1,34.19s-26.23-8.27-23.22-1.88
							c3.01,6.39,11.18,7.51,11.18,7.51l6.92,1.5h37.61l5.79-2.25c0,0,24.08-12.02,17.63-16.91c-6.45-4.88-20.64,5.64-20.64,5.64
							s24.51-27.05,19.78-37.19c-4.73-10.14-25.8,18.41-25.8,18.41s17.2-36.44,13.76-42.83C75.91,70.37,64.3,98.92,64.3,98.92z"/>
						<path class="st6" d="M64.3,98.92c0,0-10.75-25.92-16.77-24.8s10.32,41.33,10.32,41.33S38.93,79.76,26.03,79.76
							s4.73,39.45,21.07,52.6c0,0-25.8-27.8-40.85-21.79c-15.05,6.01,30.1,34.19,30.1,34.19s-26.23-8.27-23.22-1.88
							c3.01,6.39,11.18,7.51,11.18,7.51l11.26,1.5h30.38l8.68-2.25c0,0,24.08-12.02,17.63-16.91c-6.45-4.88-20.64,5.64-20.64,5.64
							s24.51-27.05,19.78-37.19c-4.73-10.14-25.8,18.41-25.8,18.41s17.2-36.44,13.76-42.83C75.91,70.37,64.3,98.92,64.3,98.92z"/>
					</g>
					<g>
						<path class="st7" d="M67.74,100.28c-9.46,27.95-9.46,47.73-9.46,47.73s11.18,0.43,22.79-8.17"/>
						<path class="st7" d="M63.01,115.34c0,0-2.15-10.32-7.74-24.51"/>
						<path class="st7" d="M35.06,98.99l24.08,35.69c0,0,16.34-13.76,21.93-21.5"/>
						<path class="st7" d="M58.71,143.29c0,0-25.37-12.04-35.69-18.92"/>
					</g>
				</g>
			</g>
			<g>
				<rect x="129.86" y="41.05" class="st8" width="5.23" height="217.9"/>
				<rect x="35.8" y="41.05" class="st8" width="5.23" height="217.9"/>
				<rect x="82.83" y="41.05" class="st8" width="5.23" height="217.9"/>
				<rect x="176.89" y="41.05" class="st8" width="5.23" height="217.9"/>
				<rect x="34.11" y="47.84" class="st8" width="146.43" height="9.93"/>
				<rect x="86.31" y="47.84" class="st9" width="94.24" height="9.93"/>
				<rect x="34.11" y="147.82" class="st8" width="146.43" height="9.93"/>
				<rect x="86.31" y="147.82" class="st9" width="94.24" height="9.93"/>
				<rect x="34.11" y="247.8" class="st8" width="146.43" height="9.93"/>
				<rect x="86.31" y="247.8" class="st9" width="94.24" height="9.93"/>
			</g>
			<g>
				<g>
					<g>
						<defs>
							<rect id="XMLID_6_" x="9.69" y="194.49" width="76.63" height="64.37"/>
						</defs>
						<use xlink:href="#XMLID_6_"  style="overflow:visible;fill:#606060;"/>
						<clipPath id="XMLID_47_">
							<use xlink:href="#XMLID_6_"  style="overflow:visible;"/>
						</clipPath>
					</g>
					<g>
						<defs>
							<rect id="XMLID_5_" x="60.86" y="194.49" width="25.46" height="64.37"/>
						</defs>
						<use xlink:href="#XMLID_5_"  style="overflow:visible;fill:#AAFF00;"/>
						<clipPath id="XMLID_48_">
							<use xlink:href="#XMLID_5_"  style="overflow:visible;"/>
						</clipPath>
						<rect x="60.86" y="194.49" class="st10" width="25.46" height="64.37"/>
						
							<use xlink:href="#XMLID_5_"  style="overflow:visible;fill:none;stroke:#696969;stroke-linecap:round;stroke-linejoin:round;stroke-miterlimit:10;"/>
					</g>
					<line class="st11" x1="73.86" y1="194.67" x2="73.86" y2="258.95"/>
				</g>
				<g>
					<g>
						<defs>
							<rect id="XMLID_8_" x="13.56" y="130.22" width="76.63" height="64.37"/>
						</defs>
						<use xlink:href="#XMLID_8_"  style="overflow:visible;fill:#606060;"/>
						<clipPath id="XMLID_49_">
							<use xlink:href="#XMLID_8_"  style="overflow:visible;"/>
						</clipPath>
					</g>
					<g>
						<defs>
							<rect id="XMLID_7_" x="64.73" y="130.22" width="25.46" height="64.37"/>
						</defs>
						<use xlink:href="#XMLID_7_"  style="overflow:visible;fill:#AAFF00;"/>
						<clipPath id="XMLID_50_">
							<use xlink:href="#XMLID_7_"  style="overflow:visible;"/>
						</clipPath>
						<rect x="65" y="130.05" class="st12" width="25.46" height="64.37"/>
						
							<use xlink:href="#XMLID_7_"  style="overflow:visible;fill:none;stroke:#696969;stroke-linecap:round;stroke-linejoin:round;stroke-miterlimit:10;"/>
					</g>
					<line class="st11" x1="77.73" y1="130.39" x2="77.73" y2="194.67"/>
				</g>
			</g>
			<g>
				<g>
					<g>
						<defs>
							<rect id="XMLID_9_" x="212.99" y="194.49" width="76.63" height="64.37"/>
						</defs>
						<use xlink:href="#XMLID_9_"  style="overflow:visible;fill:#606060;"/>
						<clipPath id="XMLID_51_">
							<use xlink:href="#XMLID_9_"  style="overflow:visible;"/>
						</clipPath>
						
							<use xlink:href="#XMLID_9_"  style="overflow:visible;fill:none;stroke:#919191;stroke-linecap:round;stroke-linejoin:round;stroke-miterlimit:10;"/>
					</g>
					<g>
						<defs>
							<rect id="XMLID_4_" x="264.16" y="194.49" width="25.46" height="64.37"/>
						</defs>
						<use xlink:href="#XMLID_4_"  style="overflow:visible;fill:#254D7F;"/>
						<clipPath id="XMLID_52_">
							<use xlink:href="#XMLID_4_"  style="overflow:visible;"/>
						</clipPath>
						
							<use xlink:href="#XMLID_4_"  style="overflow:visible;fill:none;stroke:#919191;stroke-linecap:round;stroke-linejoin:round;stroke-miterlimit:10;"/>
					</g>
					<line class="st13" x1="277.15" y1="194.67" x2="277.15" y2="258.95"/>
				</g>
				<g>
					<g>
						<defs>
							<rect id="XMLID_11_" x="212.99" y="130.05" width="76.63" height="64.37"/>
						</defs>
						<use xlink:href="#XMLID_11_"  style="overflow:visible;fill:#606060;"/>
						<clipPath id="XMLID_53_">
							<use xlink:href="#XMLID_11_"  style="overflow:visible;"/>
						</clipPath>
					</g>
					<g>
						<defs>
							<rect id="XMLID_10_" x="264.16" y="130.05" width="25.46" height="64.37"/>
						</defs>
						<use xlink:href="#XMLID_10_"  style="overflow:visible;fill:#254D7F;"/>
						<clipPath id="XMLID_54_">
							<use xlink:href="#XMLID_10_"  style="overflow:visible;"/>
						</clipPath>
						
							<use xlink:href="#XMLID_10_"  style="overflow:visible;fill:none;stroke:#919191;stroke-linecap:round;stroke-linejoin:round;stroke-miterlimit:10;"/>
					</g>
					<line class="st13" x1="277.15" y1="130.23" x2="277.15" y2="194.51"/>
				</g>
				<g>
					<g>
						<defs>
							<rect id="XMLID_13_" x="219.5" y="76.75" width="63.39" height="53.25"/>
						</defs>
						<use xlink:href="#XMLID_13_"  style="overflow:visible;fill:#606060;"/>
						<clipPath id="XMLID_55_">
							<use xlink:href="#XMLID_13_"  style="overflow:visible;"/>
						</clipPath>
					</g>
					<g>
						<defs>
							<rect id="XMLID_12_" x="261.82" y="76.75" width="21.06" height="53.25"/>
						</defs>
						<use xlink:href="#XMLID_12_"  style="overflow:visible;fill:#AAFF00;"/>
						<clipPath id="XMLID_56_">
							<use xlink:href="#XMLID_12_"  style="overflow:visible;"/>
						</clipPath>
						<rect x="261.82" y="76.75" class="st14" width="21.06" height="53.25"/>
						
							<use xlink:href="#XMLID_12_"  style="overflow:visible;fill:none;stroke:#919191;stroke-linecap:round;stroke-linejoin:round;stroke-miterlimit:10;"/>
					</g>
					<line class="st13" x1="272.57" y1="76.9" x2="272.57" y2="130.07"/>
				</g>
			</g>
			<g>
				<rect x="264.85" y="234.67" class="st15" width="9.93" height="6.22"/>
				<circle class="st16" cx="181.34" cy="252.94" r="6"/>
				<g>
					<rect x="276.58" y="153.59" class="st16" width="3.55" height="99.49"/>
					<g>
						<path class="st17" d="M278.23,188.39l-8.38-6.66c-7.27-5.78-10.52-15.34-8.26-24.35c0.67-2.67,3.06-4.53,5.81-4.53h21.68
							c2.75,0,5.14,1.86,5.81,4.53l0,0c2.25,9.01-0.99,18.57-8.26,24.35L278.23,188.39z M267.39,156.23c-1.19,0-2.23,0.81-2.52,1.97
							c-1.93,7.73,0.85,15.92,7.08,20.88l6.27,4.99l6.27-4.99c6.23-4.96,9.01-13.15,7.08-20.88l0,0c-0.29-1.16-1.32-1.97-2.52-1.97
							H267.39z"/>
					</g>
				</g>
				<g>
					<defs>
						<rect id="XMLID_3_" x="147.69" y="237.78" width="109.73" height="12.77"/>
					</defs>
					<use xlink:href="#XMLID_3_"  style="overflow:visible;fill:#FFFFFF;"/>
					<clipPath id="XMLID_57_">
						<use xlink:href="#XMLID_3_"  style="overflow:visible;"/>
					</clipPath>
					<rect x="147.69" y="237.78" class="st18" width="109.73" height="12.77"/>
					
						<use xlink:href="#XMLID_3_"  style="overflow:visible;fill:none;stroke:#1A2E35;stroke-linecap:round;stroke-linejoin:round;stroke-miterlimit:10;"/>
				</g>
				<rect x="147.69" y="237.78" class="st7" width="12.3" height="12.77"/>
				<rect x="245.12" y="237.78" class="st7" width="12.3" height="12.77"/>
				<rect x="196.41" y="237.78" class="st7" width="12.3" height="12.77"/>
				<polygon class="st15" points="257.42,250.55 264.99,250.55 274.45,214.6 266.88,214.6 				"/>
				<rect x="273.38" y="229.74" class="st15" width="9.93" height="16.08"/>
				<path class="st17" d="M275.92,258.95L275.92,258.95c-1.18,0-2.13-0.96-2.13-2.13v-8c0-1.18,0.96-2.13,2.13-2.13l0,0
					c1.18,0,2.13,0.96,2.13,2.13v8C278.05,257.99,277.1,258.95,275.92,258.95z"/>
				<path class="st17" d="M280.99,258.95L280.99,258.95c-1.18,0-2.13-0.96-2.13-2.13v-8c0-1.18,0.96-2.13,2.13-2.13l0,0
					c1.18,0,2.13,0.96,2.13,2.13v8C283.12,257.99,282.17,258.95,280.99,258.95z"/>
			</g>
			<line class="st7" x1="0" y1="258.95" x2="299.28" y2="258.95"/>
		</g>
	</g>
	<g>
		<g>
			<ellipse class="st3" cx="103.25" cy="273.49" rx="52.24" ry="6.35"/>
			<ellipse class="st1" cx="103.25" cy="273.49" rx="52.24" ry="6.35"/>
		</g>
		<g>
			<path class="st3" d="M211.37,273.49c0,1.75-11.66,3.17-26.04,3.17c-14.38,0-26.04-1.42-26.04-3.17c0-1.75,11.66-3.17,26.04-3.17
				C199.71,270.33,211.37,271.75,211.37,273.49z"/>
			<path class="st1" d="M211.37,273.49c0,1.75-11.66,3.17-26.04,3.17c-14.38,0-26.04-1.42-26.04-3.17c0-1.75,11.66-3.17,26.04-3.17
				C199.71,270.33,211.37,271.75,211.37,273.49z"/>
		</g>
		<g>
			<g>
				<path id="XMLID_19_" class="st16" d="M113.66,64.3c0,0-4.04-3.17-8.66-1.59c-4.62,1.59-8.15,9.31-9.38,15.59
					c-1.23,6.28-6.06,11.04-4.91,18.4c1.15,7.36,9.52,8.51,19.63,9.6s15.59-0.14,20.35-6.78c4.76-6.64,2.74-14.72-0.07-21.86
					c-2.81-7.14-7.5-13.78-11.4-15.01C115.32,61.41,113.66,64.3,113.66,64.3z"/>
				<g>
					<path class="st19" d="M96.97,102.08c1.17,0.52,2.12,0.72,2.12,0.72"/>
					<path class="st19" d="M112.66,69.44c0,0-2.07,5.02-6.2,10.33c-4.13,5.31-13.28,10.33-13.87,15.94
						c-0.19,1.78,0.4,3.14,1.28,4.18"/>
					<path class="st19" d="M129.45,96.11c-0.28,0.66-0.66,1.32-1.14,1.96"/>
					<path class="st19" d="M125.94,82.14c0,0,4.66,5.37,4.2,11.1"/>
					<path class="st19" d="M111.78,66.49c0,0-5.61-0.89-9.74,3.84c-0.16,0.19-0.32,0.37-0.46,0.56"/>
				</g>
			</g>
			<g>
				<path id="XMLID_33_" class="st15" d="M85.1,202.81l-0.9,13.92c0,0-3.85,18.66-5.08,26.36c-1.23,7.7-3.44,19.4-3.85,19.4
					c-0.41,0-7.04,4.01-9.17,7.29c-2.13,3.27,0.57,4.67,3.52,3.6c2.95-1.06,6.96-4.01,8.27-7.53c1.31-3.52,1.96-4.83,2.05-5.4
					c0.08-0.57,14.08-38.15,15.47-42.16c1.39-4.01,4.34-15.8,4.34-15.8l6.88-23.33c0,0,7.37,23.99,7.45,25.05
					c0.08,1.06,7.61,62.38,7.94,64.67c0.33,2.29,0.25,3.93,1.64,4.42c1.39,0.49,4.67,0.49,6.39,0.49c1.72,0,7.7,0.9,10.64,0.16
					c2.95-0.74,3.27-1.23,1.23-2.7c-2.05-1.47-13.42-2.42-14.49-6.71c-0.08-0.33-0.16-63.44-0.16-63.44s-0.98-20.87-2.62-26.77
					H86.82L85.1,202.81z"/>
				<path id="XMLID_38_" class="st16" d="M69.63,273.37c2.95-1.06,6.96-4.01,8.27-7.53c0.1-0.26,0.19-0.5,0.28-0.74
					c-1.67,1.78-4.37,4.26-4.37,4.26s-0.25-1.39-1.06-2.29c-0.82-0.9-1.88-0.57-1.88-0.57l2.86-3.18c-2.2,1.35-6.07,4.09-7.61,6.45
					C63.98,273.05,66.68,274.44,69.63,273.37z"/>
				<path id="XMLID_39_" class="st16" d="M141.91,271.24c-1.4-1.01-7.17-1.77-11.01-3.53c-0.16,0.14-0.29,0.3-0.37,0.5
					c-0.33,0.82-0.57,2.13-0.57,2.13l-7.97-1.7c0.01,0.1,0.02,0.18,0.03,0.23c0.33,2.29,0.25,3.93,1.64,4.42
					c1.39,0.49,4.67,0.49,6.39,0.49c1.72,0,7.7,0.9,10.64,0.16C143.63,273.21,143.96,272.72,141.91,271.24z"/>
			</g>
			<g>
				<path id="XMLID_32_" class="st16" d="M96.12,140.42c0,0-3.75,1.73-8.3,9.89c-4.97,8.91-4.11,13.85-4.18,24.6
					c-0.07,10.75-0.29,28.57-0.29,28.57s13.71,3.68,23.59,3.1c9.89-0.58,22.37-2.81,22.37-2.81s-2.67-36.37-5.2-46.83
					c-2.53-10.46-4.04-15.15-4.04-15.15s-6.35,1.08-14.72,0.22C96.99,141.14,96.12,140.42,96.12,140.42z"/>
				<g>
					<path class="st19" d="M111.93,172.55c0.38,1.24,0.72,2.49,1.03,3.74"/>
					<path class="st19" d="M103.22,152.09c0,0,4.24,7.57,7.48,16.72"/>
				</g>
			</g>
			<g>
				<path id="XMLID_35_" class="st15" d="M188.25,133.48c-0.43-0.29-7.54-1.4-7.54-1.4l-1.39-0.57c0,0,8.61,0.69,8.68,0.33
					c0.07-0.36,0.36-0.79-0.22-0.87c-0.58-0.07-11.65-2.33-11.65-2.33s2.81-2.66,3.18-3.24c0.36-0.58,0.87-1.73,0.29-1.73
					c-0.58,0-0.72,0.36-1.52,0.87c-0.79,0.51-3.9,1.73-4.76,2.45c-0.87,0.72-3.46,2.6-3.46,2.6l-30.07-4.14
					c0,0-10.56-13.02-12.85-15.8c-2.29-2.78-5.4-4.91-5.4-4.91c-2.21-0.98-2.13,0.65-2.13,0.65l4.58,20.55
					c0,0,11.95,7.12,12.69,7.12c0.74,0,33.04,1.07,33.04,1.07s2.16,1.01,3.54,1.88c1.37,0.87,10.03,3.61,10.03,3.61
					s0.58-0.29-0.07-0.79c-0.65-0.51-4.83-2.53-4.83-2.53l8.66,1.88c0,0,0.51-0.36,0.29-0.72c-0.22-0.36-7.94-3.32-7.94-3.32
					l8.66,0.43C188.03,134.56,188.68,133.77,188.25,133.48z"/>
				<path class="st15" d="M137.97,123.21c-3.12-3.85-9.34-11.51-11.04-13.57c-2.29-2.78-5.4-4.91-5.4-4.91
					c-2.21-0.98-2.13,0.65-2.13,0.65l4.58,20.55c0,0,5.39,3.21,9.16,5.32L137.97,123.21z"/>
			</g>
			<g>
				<path id="XMLID_30_" class="st15" d="M106.01,102.98c0,0-6.28,0.29-10.1,4.55s-3.39,13.64-1.8,19.27
					c1.59,5.63,3.61,8.73,3.17,10.68c-0.43,1.95-2.02,2.6-1.15,4.4c0.87,1.8,5.84,3.75,14.65,3.46c8.8-0.29,10.46-2.16,10.53-3.82
					c0.07-1.66-0.58-3.03-0.36-4.04c0.22-1.01,6.57-6.64,6.57-12.84c0-6.21-2.74-8.37-3.39-12.84c-0.65-4.47-0.43-5.12-3.1-7.07
					S109.54,101.75,106.01,102.98z"/>
				<path class="st7" d="M103.16,124.52c0,0-3.46,2.94-6.92,4.33"/>
				<path class="st7" d="M103.85,125.21c0,0-1.56,5.02-5.36,7.79"/>
			</g>
			<g>
				<g>
					<polygon id="XMLID_29_" class="st15" points="119.43,107.52 120.15,114.45 117.12,110.91 					"/>
					<polygon id="XMLID_28_" class="st15" points="115.39,115.03 119.43,107.52 115.75,103.55 					"/>
				</g>
				<path id="XMLID_21_" class="st15" d="M107.6,90.71c0,0,1.08,4.11,0.94,7.65c-0.14,3.54-0.51,4.98-0.51,4.98l7.36,11.69
					l2.09-10.82l1.37-7.5C118.85,96.7,110.48,96.19,107.6,90.71z"/>
				<g>
					<polygon id="XMLID_27_" class="st15" points="114.96,108.75 115.39,115.03 113.22,111.63 					"/>
					<polygon id="XMLID_25_" class="st15" points="105.58,103.05 112.29,115.1 114.96,108.75 107.81,98.93 					"/>
				</g>
			</g>
			<g>
				<g>
					<defs>
						<rect id="XMLID_37_" x="162.25" y="108.67" width="60.91" height="49.98"/>
					</defs>
					<use xlink:href="#XMLID_37_"  style="overflow:visible;fill:#AAFF00;"/>
					<clipPath id="XMLID_58_">
						<use xlink:href="#XMLID_37_"  style="overflow:visible;"/>
					</clipPath>
					<rect id="XMLID_1_" x="162.25" y="108.67" class="st20" width="60.91" height="49.98"/>
					
						<use xlink:href="#XMLID_37_"  style="overflow:visible;fill:none;stroke:#1A2E35;stroke-linecap:round;stroke-linejoin:round;stroke-miterlimit:10;"/>
				</g>
				<rect id="XMLID_34_" x="149.36" y="108.67" class="st21" width="60.91" height="49.98"/>
				<g>
					<defs>
						<path id="XMLID_60_" d="M233.19,175.47c-1.95-3.1-10.03-16.82-10.03-16.82h-12.89l6.63,16.82H233.19z"/>
					</defs>
					<use xlink:href="#XMLID_60_"  style="overflow:visible;fill:#AAFF00;"/>
					<clipPath id="XMLID_59_">
						<use xlink:href="#XMLID_60_"  style="overflow:visible;"/>
					</clipPath>
					<path id="XMLID_2_" class="st22" d="M233.19,175.47c-1.95-3.1-10.03-16.82-10.03-16.82h-12.89l6.63,16.82H233.19z"/>
					
						<use xlink:href="#XMLID_60_"  style="overflow:visible;fill:none;stroke:#1A2E35;stroke-linecap:round;stroke-linejoin:round;stroke-miterlimit:10;"/>
				</g>
				<path id="XMLID_41_" class="st23" d="M139.29,175.47c1.95-3.1,10.03-16.82,10.03-16.82h12.89l-6.63,16.82H139.29z"/>
				<polygon id="XMLID_36_" class="st24" points="149.32,158.64 143.71,175.47 207.32,175.47 210.27,158.64 				"/>
				<g>
					<line class="st7" x1="231" y1="126.75" x2="231" y2="143.48"/>
					<line class="st7" x1="234.16" y1="133.99" x2="234.16" y2="147.55"/>
					<line class="st7" x1="142.81" y1="143.48" x2="142.81" y2="153.88"/>
					<line class="st7" x1="140.1" y1="149.36" x2="140.1" y2="157.5"/>
				</g>
			</g>
			<g id="XMLID_31_">
				<path id="XMLID_26_" class="st15" d="M95.55,120.94c0,0,3.1,3.68,7.43,6.28c4.33,2.6,20.28,11.62,21.5,12.12
					c1.23,0.51,39.25-5.7,39.25-5.7s2.16,1.01,3.54,1.88c1.37,0.87,10.03,3.61,10.03,3.61s0.58-0.29-0.07-0.79
					c-0.65-0.51-4.83-2.53-4.83-2.53l8.66,1.88c0,0,0.51-0.36,0.29-0.72c-0.22-0.36-7.94-3.32-7.94-3.32l8.66,0.43
					c0,0,0.65-0.79,0.22-1.08c-0.43-0.29-9.31-2.31-9.31-2.31s9.45-0.79,9.52-1.15c0.07-0.36,0.36-0.79-0.22-0.87
					c-0.58-0.07-12.41-1.23-12.41-1.23s3.1-1.95,3.46-2.53c0.36-0.58,0.87-1.73,0.29-1.73s-0.72,0.36-1.52,0.87
					c-0.79,0.51-3.9,1.73-4.76,2.45c-0.87,0.72-3.46,2.6-3.46,2.6l-34.78,0.07l-21.57-17.03"/>
				<path id="XMLID_40_" class="st15" d="M182.27,128.66c-0.58-0.07-12.41-1.23-12.41-1.23s3.1-1.95,3.46-2.53
					c0.36-0.58,0.87-1.73,0.29-1.73s-0.72,0.36-1.52,0.87c-0.79,0.51-3.9,1.73-4.76,2.45c-0.87,0.72-3.46,2.6-3.46,2.6l-34.78,0.07
					l-3.87-3.06c-1.48,2.54-4.15,7.3-5.91,10.44c2.71,1.51,4.76,2.63,5.17,2.8c1.23,0.51,39.25-5.7,39.25-5.7s2.16,1.01,3.54,1.88
					c1.37,0.87,10.03,3.61,10.03,3.61s0.58-0.29-0.07-0.79c-0.65-0.51-4.83-2.53-4.83-2.53l8.66,1.88c0,0,0.51-0.36,0.29-0.72
					c-0.22-0.36-7.94-3.32-7.94-3.32l8.66,0.43c0,0,0.65-0.79,0.22-1.08c-0.43-0.29-9.31-2.31-9.31-2.31s9.45-0.79,9.52-1.15
					C182.56,129.17,182.85,128.73,182.27,128.66z"/>
			</g>
			<g>
				<path id="XMLID_17_" class="st15" d="M124.05,84.65c0-0.22,1.44-0.94,1.8,0.43c0.36,1.37-0.36,3.68-1.15,4.47s-1.52,1.01-1.52,0
					S124.05,84.65,124.05,84.65z"/>
				<g>
					<path id="XMLID_18_" class="st15" d="M115.16,72c0,0-0.14,5.38-4.25,9.34c-4.1,3.96-7.78,5.8-7.78,5.8s0.42,2.26,1.27,2.97
						c0.85,0.71,2.55,0.57,2.55,0.57s1.27,3.96,4.67,7.08c3.4,3.11,7.36,2.83,9.62-1.84c2.26-4.67,3.4-9.34,3.11-12.03
						c-0.28-2.69-0.28-2.69-0.28-2.69S116.72,77.1,115.16,72z"/>
					<g>
						<ellipse id="XMLID_20_" class="st17" cx="114.74" cy="84.84" rx="0.65" ry="1.15"/>
						<ellipse id="XMLID_24_" class="st17" cx="118.27" cy="94.07" rx="0.65" ry="1.15"/>
						<ellipse id="XMLID_22_" class="st17" cx="121.01" cy="84.84" rx="0.65" ry="1.15"/>
						<path id="XMLID_23_" class="st7" d="M119.71,83.61c0,0-0.43,1.44-0.22,2.67c0.22,1.23,1.23,3.32,0.36,3.68
							c-0.87,0.36-2.02,0.22-2.45-0.29"/>
						<path id="XMLID_15_" class="st7" d="M112.86,82.75c0,0,0.34-2.22,3.24-1.96"/>
						<path id="XMLID_16_" class="st7" d="M120.63,81.47c0,0,2.7-2.18,3.58,1.79"/>
					</g>
				</g>
			</g>
		</g>
	</g>
</g>
</svg>
