<svg xmlns="http://www.w3.org/2000/svg" viewBox="0 0 534.61 1889.36"><defs><style>.cls-1{fill:none;stroke:#000;stroke-miterlimit:10;stroke-width:3px;}</style></defs><g id="Layer_2" data-name="Layer 2"><g id="Layer_1-2" data-name="Layer 1"><path class="cls-1" d="M533.11,501.86v1386H1.5v-1386C1.5,210.86,267.11,1.5,267.11,1.5h.39S533.11,210.86,533.11,501.86Z"/><path d="M5.11,689.86H16.2v63c0,7.82-9.09,6.83-11.09,6.83h0Z"/><path d="M529.2,689.86H518.11v63c0,7.82,9.09,6.83,11.09,6.83h0Z"/><path d="M5.11,1734.86H16.2v63c0,7.82-9.09,6.83-11.09,6.83h0Z"/><path d="M529.2,1734.86H518.11v63c0,7.82,9.09,6.83,11.09,6.83h0Z"/><path d="M4.11,591.86h3a7,7,0,0,1,7,7v0a7,7,0,0,1-7,7h-3a0,0,0,0,1,0,0v-14A0,0,0,0,1,4.11,591.86Z"/><path d="M520.11,591.86h3a7,7,0,0,1,7,7v0a7,7,0,0,1-7,7h-3a0,0,0,0,1,0,0v-14a0,0,0,0,1,0,0Z" transform="translate(1050.22 1197.72) rotate(180)"/><path d="M11.11,596.86h196a2,2,0,0,1,2,2v0a2,2,0,0,1-2,2h-196a0,0,0,0,1,0,0v-4A0,0,0,0,1,11.11,596.86Z"/><rect x="326.11" y="596.86" width="197" height="4" rx="2"/><rect x="218.11" y="596.86" width="99" height="4" rx="2"/></g></g></svg>