<svg xmlns="http://www.w3.org/2000/svg" xmlns:xlink="http://www.w3.org/1999/xlink" xmlns:svgjs="http://svgjs.com/svgjs" version="1.1" width="512" height="512" x="0" y="0" viewBox="0 0 512 512" style="enable-background:new 0 0 512 512" xml:space="preserve"><g transform="matrix(1,0,0,-1,0,512.0000038146973)">
    <path style="" d="M424.339,488.468H87.661c-17.709,0-32.065-14.356-32.065-32.065V127.742h400.806v328.661  C456.403,474.112,442.047,488.468,424.339,488.468z" fill="#4c88e2" class="svgpath-1" data-original="#ff8087"></path>
    <path style="" d="M55.597,127.742v328.661c0,17.709,14.356,32.065,32.065,32.065h16.032V175.839h304.613v248.5  c0,17.709,14.356,32.065,32.065,32.065h16.032V127.742H55.597z" fill="#abcdff" class="svgpath-2" data-original="#e6646e"></path>
    <path style="" d="M424.339,23.532H87.661C43.39,23.532,7.5,59.421,7.5,103.694v328.661  c0,13.282,10.767,24.048,24.048,24.048H47.58c13.282,0,24.048-10.767,24.048-24.048V119.726H440.37v312.629  c0,13.282,10.767,24.048,24.048,24.048h16.032c13.282,0,24.048-10.767,24.048-24.048V103.694  C504.5,59.421,468.61,23.532,424.339,23.532z" fill="#4c88e2" class="svgpath-1" data-original="#ff8087"></path>
    <path style="" d="M416.323,151.79H95.677c-13.282,0-24.048-10.767-24.048-24.048V87.661  c0-13.282,10.767-24.048,24.048-24.048h320.645c13.282,0,24.048,10.767,24.048,24.048v40.081  C440.371,141.023,429.604,151.79,416.323,151.79z" fill="#abcdff" class="svgpath-2" data-original="#e6646e"></path>
    <g xmlns="http://www.w3.org/2000/svg">
        <path style="" d="M39.565,456.403h8.016c13.282,0,24.048-10.767,24.048-24.048V167.823l0,0   c-17.709,0-32.064,14.356-32.064,32.064V456.403z" fill="#abcdff" class="svgpath-3" data-original="#ff9ba0"></path>
        <path style="" d="M472.435,456.403h8.016c13.282,0,24.048-10.767,24.048-24.048V167.823l0,0   c-17.709,0-32.064,14.356-32.064,32.064V456.403z" fill="#abcdff" class="svgpath-3" data-original="#ff9ba0"></path>
    </g>
    <path style="" d="M416.323,151.79H95.677c-13.282,0-24.048-10.767-24.048-24.048V111.71  c0-13.282,10.767-24.048,24.048-24.048h320.645h0.002c13.28,0.001,24.046,10.768,24.046,24.048v16.032  C440.371,141.023,429.604,151.79,416.323,151.79z" fill="#4c88e2" class="svgpath-1" data-original="#ff8087"></path>
    <path style="" d="M416.323,151.79H95.677c-13.282,0-24.048-10.767-24.048-24.048v-8.016h368.742v8.016  C440.371,141.023,429.604,151.79,416.323,151.79z" fill="#abcdff" class="svgpath-3" data-original="#ff9ba0"></path>
    <path style="" d="M376.242,264.016H135.758c-17.709,0-32.065-14.356-32.065-32.065v-48.097  c0-17.709,14.356-32.065,32.065-32.065h240.484c17.709,0,32.065,14.356,32.065,32.065v48.097  C408.306,249.66,393.951,264.016,376.242,264.016z" fill="#abcdff" class="svgpath-4" data-original="#f7d291"></path>
    <path style="" d="M135.758,256v-24.048c0-30.99,25.123-56.113,56.113-56.113h215.302  c-3.576-13.806-16.007-24.048-30.931-24.048H135.758c-17.709,0-32.065,14.356-32.065,32.065v48.097  c0,17.709,14.356,32.065,32.065,32.065h1.134C136.224,261.44,135.758,258.785,135.758,256z" fill="#06357d" class="svgpath-5" data-original="#f0c382"></path>
    <path d="M424.339,16.032H87.661C39.325,16.032,0,55.357,0,103.693v328.661c0,17.396,14.152,31.549,31.548,31.549H47.58  c0.413,0,0.823-0.016,1.233-0.031c3.503,18.256,19.586,32.096,38.848,32.096h336.678c19.262,0,35.345-13.84,38.848-32.096  c0.41,0.016,0.819,0.031,1.233,0.031h16.032c17.396,0,31.548-14.152,31.548-31.549V103.693  C512,55.357,472.675,16.032,424.339,16.032z M497,432.354c0,9.125-7.423,16.549-16.548,16.549H464.42  c-9.125,0-16.548-7.424-16.548-16.549V199.885c0-4.142-3.358-7.5-7.5-7.5s-7.5,3.358-7.5,7.5v232.469  c0,11.666,6.369,21.865,15.807,27.324c-1.607,12.001-11.906,21.29-24.34,21.29H87.661c-12.434,0-22.733-9.288-24.34-21.29  c9.438-5.459,15.807-15.658,15.807-27.324v-8.012c0-4.143-3.358-7.5-7.5-7.5s-7.5,3.357-7.5,7.5v8.012  c0,9.125-7.423,16.549-16.548,16.549H31.548c-9.125,0-16.548-7.424-16.548-16.549V103.693c0-40.065,32.596-72.661,72.661-72.661  h336.678c40.065,0,72.661,32.596,72.661,72.661L497,432.354L497,432.354z" fill="#000000" data-original="#000000" style=""></path>
    <path d="M416.323,80.161H95.677c-17.396,0-31.548,14.153-31.548,31.549v280.564c0,4.142,3.358,7.5,7.5,7.5s7.5-3.358,7.5-7.5  V154.587c4.814,2.979,10.483,4.703,16.548,4.703h9.1c-5.366,6.754-8.584,15.288-8.584,24.564v48.097  c0,21.816,17.749,39.564,39.565,39.564h240.483c21.816,0,39.565-17.749,39.565-39.564v-48.097c0-9.276-3.217-17.811-8.584-24.564  h9.1c6.065,0,11.734-1.724,16.548-4.703v13.235c0,4.143,3.358,7.5,7.5,7.5s7.5-3.357,7.5-7.5V111.71  C447.871,94.315,433.72,80.163,416.323,80.161z M400.807,183.854v48.097c0,13.545-11.02,24.564-24.565,24.564H135.758  c-13.545,0-24.565-11.02-24.565-24.564v-48.097c0-13.545,11.02-24.564,24.565-24.564h240.483  C389.787,159.29,400.807,170.31,400.807,183.854z M416.323,144.29H95.677c-9.125,0-16.548-7.423-16.548-16.548V111.71  c0-9.125,7.423-16.549,16.548-16.549h320.647c9.124,0.001,16.546,7.425,16.546,16.549v16.032  C432.871,136.867,425.448,144.29,416.323,144.29z" fill="#000000" data-original="#000000" style=""></path>
</g>
</svg>